<?xml version="1.0" encoding="UTF-8"?>
<svg id="Layer_1" xmlns="http://www.w3.org/2000/svg" viewBox="0 0 841.89 449.98">
  <defs>
    <style>
      .cls-1 {
        fill: #fff;
      }
    </style>
  </defs>
  <circle class="cls-1" cx="240.39" cy="186.18" r="41.52"/>
  <circle class="cls-1" cx="338.44" cy="168.88" r="32.87"/>
  <circle class="cls-1" cx="369.58" cy="106.59" r="16.15"/>
  <circle class="cls-1" cx="295.18" cy="119.28" r="14.99"/>
  <circle class="cls-1" cx="428.41" cy="157.92" r="32.3"/>
  <circle class="cls-1" cx="427.25" cy="240.39" r="27.68"/>
  <circle class="cls-1" cx="333.99" cy="267.23" r="39.79"/>
  <circle class="cls-1" cx="244.43" cy="279.03" r="20.53"/>
  <circle class="cls-1" cx="180.99" cy="240.39" r="15.03"/>
  <ellipse class="cls-1" cx="652.89" cy="200.14" rx="12.15" ry="14.74"/>
  <ellipse class="cls-1" cx="693.56" cy="206.1" rx="11.6" ry="12.95"/>
  <ellipse class="cls-1" cx="728.84" cy="208.54" rx="10.26" ry="11.62"/>
  <path class="cls-1" d="M529.71,120.17c-.75,2.02-3.12,2.89-5.05,1.92-6.26-3.16-20.87-12.32-31.38-32.8-11.25-21.92-7.34-40.05-.87-43.25,18.2-9.01,44.27,55.25,37.29,74.13Z"/>
  <rect class="cls-1" x="741.64" y="419.84" width="31.96" height="22.91" rx="8.81" ry="8.81"/>
  <rect class="cls-1" x="95.71" y="419.84" width="31.96" height="22.91" rx="8.81" ry="8.81"/>
  <path class="cls-1" d="M584.41,138.02c-23.41,0-42.39,18.98-42.39,42.39s18.98,42.39,42.39,42.39,42.39-18.98,42.39-42.39-18.98-42.39-42.39-42.39ZM589.02,185.86c-7.08,0-12.83-5.48-12.83-12.24s5.74-12.24,12.83-12.24,12.83,5.48,12.83,12.24-5.74,12.24-12.83,12.24Z"/>
  <path class="cls-1" d="M145.08,295.84c-2.22-3.51-4.56-7.31-6.9-11.21-.44,1.54-.92,3.06-1.43,4.55,2.32,2.54,4.62,5.13,6.89,7.73.73.83,2.03-.13,1.44-1.07Z"/>
  <path class="cls-1" d="M813.23,163.98c-28.98-9.95-43.77,5.86-91.7-10.81-45.99-16-64.45-35.9-64.45-35.9,0,0,10.67-14.85,15.57-29.85,3.64-11.12,17.89-79.62-40.66-79.44-58.53.17-55.08,69.35-55.08,69.35-9.23-1.59-13.41-1.01-19.29-.69,0,0-9.26-62.9-59.52-67.95-56.9-5.72-47.14,58.85-47.14,58.85,0,0-36.98-18.76-123.81-7.79-95.72,12.09-163.18,60.98-214.38,159.97C57.5,326.61,12.59,358.62,12.59,358.62c0,0-19.03,20.19,9.8,25.95,59.89,11.98,124.21-20.48,124.21-20.48,0,0,.37,4.33,3.83,23.36,2.05,11.25,8.92,23.9,14.21,32.38h-15.3c-4.86,0-8.81,3.94-8.81,8.81v5.3c0,4.86,3.94,8.81,8.81,8.81h570.63c4.86,0,8.81-3.94,8.81-8.81v-5.3c0-4.86-3.94-8.81-8.81-8.81h-84.41c-.96-12.38-6.22-18.32-18.28-27.47-12.54-9.52-14.71-22.92-15.57-51.91-.87-28.98,6.64-51.8,6.64-51.8,0,0,36.18,1.63,93.71-10.05,57.53-11.68,86.94-28.12,113.76-43.69,26.82-15.57,26.39-60.99-2.6-70.94ZM629.68,27.87c46.02,4.65,16.24,62.15,9.59,74-.65,1.16-2.15,1.51-3.25.77l-7.31-4.91c-.93-.62-1.27-1.82-.81-2.83,3.87-8.47,19.67-45.01,4.95-46.85-15.55-1.94-21.99,27.84-23.63,37.27-.25,1.44-1.77,2.26-3.12,1.7l-7.06-2.93c-.84-.35-1.39-1.17-1.4-2.08-.09-9.21.9-57.29,32.04-54.14ZM112.24,265.8l6.87-14.96c.34-.74,1.39-.69,1.66.08,3,8.5,10.16,21.59,17.41,33.7-.44,1.54-.92,3.06-1.43,4.55-7.99-8.76-16.17-16.87-24.2-22.26-.36-.25-.5-.71-.31-1.11ZM91.54,360.62c-12.77,3.17-28.08,4.82-43.76,4.43q1.86-.58,0,0c-.73-.02-1.45-.02-2.18-.04-2.3-.08-3.37-2.9-1.72-4.51,9.6-9.36,21.77-23.41,26-28.35.88-1.03,2.41-1.21,3.51-.42,7.25,5.14,10.93,9.36,14.48,15.26,0,0-3.3,2.03,0,0,1.69,2.81,3.36,6,5.37,9.86.79,1.51-.05,3.36-1.7,3.77ZM140.01,341.52l-23.42,10.51c-1.52.68-3.33.03-4.03-1.49-2.53-5.43-5.36-10.49-8.55-15.1h0c-5.37-7.74-11.77-14.2-19.53-18.96-1.46-.9-1.91-2.8-1-4.25l18.78-29.89c1.16-1.38,16.35,10.44,27.42,22.72h0c6.06,6.73,10.89,13.59,11.48,18.49.03.22.02.44,0,.66-.46,5.32,0,8.43.65,14.15.15,1.33-.58,2.61-1.8,3.16ZM198.91,419.84c1.66-9.37,6.76-21.85,22.16-21.85,13.78,0,19.71,11.6,22.27,21.85h-44.44ZM262.72,419.84c-3.02-16.89-11.12-28.13-23.38-34.74-1.88-1.01-3.08-2.96-3.07-5.09.03-10.78,2.39-19.86,6.58-27.61,7.23,1.77,14.48,3.61,21.15,3.64l6.82,17.9c2.76,17.09,9.64,32.49,21.32,45.91h-29.43ZM323.15,419.84c1.23-8.8,5.6-21.55,20.76-20.12,13.4,1.26,19.4,11.68,21.82,20.12h-42.59ZM386.31,419.84c-3.07-17.56-11.57-29.63-25.3-36.42-1.58-.78-2.73-2.25-3.09-3.97-1.94-9.03-1.75-16.11,3.05-23.39.43-.66,1.1-1.13,1.85-1.35,5.12-1.46,11.6-2.68,20.03-5.39,0,0,4.99,15.21,14.27,30.06,8.13,13.01,10.62,31.88,11.36,40.45h-22.17ZM132.29,223.86c.11-1.15.39-2.29.86-3.37,8.51-19.65,49.68-100.96,160.3-135.81,94.77-26.41,153.94,3.09,165.03,9.39,1.22.69,2.17,1.75,2.77,3.01,6.31,13.32,14.47,24.19,24.95,37.17.92,1.14,1.24,2.65.87,4.07-6.87,26.37-6.7,54.34,7.11,86.32,8.92,20.65,13.83,16.96,4.42,24.3-7.3,5.7-33.82,29.45-66.24,50.74-.12.04-.46.14-.35.11q.35-.11,0,0c-.12.04.23-.07.35-.11-20.64,13.56-43.67,26.12-65.66,32.4-56.52,16.15-133.37,5.94-173.59-20.19-33.79-21.95-54.36-68.49-60.07-82.81-.67-1.68-.91-3.48-.74-5.24M446.16,419.84c-.45-8.77,1.62-21.71,17.57-22.28,15.02-.54,23.54,12.38,27.86,22.28h-45.43ZM511.64,419.84c-.49-2.26-1.28-5.16-2.49-8.88-5.62-17.3-20.33-23.36-24.36-27.35s1.44-21.96,2.73-31.47c1.3-9.52,3.03-14.71,7.35-18.6,4.33-3.89,4.84,12.81,21.19,40.66,11.92,20.3,18.32,37.95,20.81,45.64h-25.24ZM609.7,419.84h-42.59c1.23-8.8,5.6-21.55,20.76-20.12,13.4,1.26,19.4,11.68,21.83,20.12ZM746.12,241.78h0c-36.2,12.48-100.95,30.32-160.56,23.7-90.76-10.08-95.43-113.1-70.55-132.5,0,0,0-.02.01-.03l9,5.51h0l-9-5.51c.07-.07.07-.18-.02-.24-2.11-1.39-21.07-14.29-34.12-38.23-13.84-25.38-10.86-54.78,6.92-62.86,38.64-12.6,53.36,42.5,57.75,85.44.16,1.59,1.57,2.62,3.14,2.31,2.75-.56,5.91-2.38,8.16-3.42.59-.27.96-.84.97-1.49.04-2.39.13-8.2.21-11.91.04-1.57,1.18-2.88,2.73-3.16,7.15-1.3,30.51-3.54,65.46,23.93,49.11,38.61,103.6,54.65,141.46,57.53,0,0-15.85,16.58-9.3,31.36,6.55,14.78,16.44,18.6,16.44,18.6,0,0-10.9,4.84-28.7,10.97ZM789.3,213.99c-4.2.52-8.2-3.87-8.94-9.8-.73-5.93,2.08-11.17,6.28-11.69,4.2-.52,8.2,3.87,8.94,9.8.73,5.93-2.08,11.17-6.28,11.68ZM813.41,209.26c-3.53.44-6.89-3.25-7.51-8.23s1.74-9.38,5.27-9.81c3.53-.44,6.89,3.25,7.51,8.23.62,4.98-1.74,9.38-5.27,9.81Z"/>
</svg>